<svg xmlns="http://www.w3.org/2000/svg" viewBox="0 0 512 512">
  <defs>
    <linearGradient id="bg" x1="0%" y1="0%" x2="100%" y2="100%">
      <stop offset="0%" style="stop-color:#FF9800"/>
      <stop offset="100%" style="stop-color:#E68A00"/>
    </linearGradient>
  </defs>
  <!-- Background circle -->
  <circle cx="256" cy="256" r="240" fill="url(#bg)"/>
  <!-- Sun rays -->
  <g stroke="#FFF" stroke-width="8" stroke-linecap="round" opacity="0.9">
    <line x1="256" y1="80" x2="256" y2="120"/>
    <line x1="380" y1="132" x2="355" y2="157"/>
    <line x1="432" y1="256" x2="392" y2="256"/>
    <line x1="380" y1="380" x2="355" y2="355"/>
    <line x1="256" y1="432" x2="256" y2="392"/>
    <line x1="132" y1="380" x2="157" y2="355"/>
    <line x1="80" y1="256" x2="120" y2="256"/>
    <line x1="132" y1="132" x2="157" y2="157"/>
  </g>
  <!-- Sun center -->
  <circle cx="256" cy="256" r="72" fill="#FFF" opacity="0.95"/>
  <!-- Solar panel -->
  <rect x="200" y="280" width="112" height="80" rx="4" fill="#1a1a2e" opacity="0.85"/>
  <line x1="228" y1="280" x2="228" y2="360" stroke="#FF9800" stroke-width="2"/>
  <line x1="256" y1="280" x2="256" y2="360" stroke="#FF9800" stroke-width="2"/>
  <line x1="284" y1="280" x2="284" y2="360" stroke="#FF9800" stroke-width="2"/>
  <line x1="200" y1="306" x2="312" y2="306" stroke="#FF9800" stroke-width="2"/>
  <line x1="200" y1="333" x2="312" y2="333" stroke="#FF9800" stroke-width="2"/>
</svg>
